<?xml version="1.0" encoding="UTF-8"?>
<svg xmlns="http://www.w3.org/2000/svg" xmlns:xlink="http://www.w3.org/1999/xlink" width="120px" height="55px" viewBox="0 0 119 55" version="1.1">
<g id="surface1">
<path style=" stroke:none;fill-rule:nonzero;fill:rgb(0%,0%,0%);fill-opacity:1;" d="M 7.929688 28.1875 L 7.929688 44.414062 L 24.0625 44.386719 L 40.195312 44.34375 L 40.195312 28.1875 L 40.210938 12.03125 L 24.0625 11.988281 L 7.929688 11.960938 Z M 34.316406 15.425781 C 34.316406 15.511719 32.03125 17.902344 29.230469 20.722656 L 24.144531 25.851562 L 19.332031 25.851562 C 16.695312 25.851562 13.78125 25.808594 12.878906 25.753906 L 11.210938 25.671875 L 11.210938 15.261719 L 22.765625 15.261719 C 31.625 15.261719 34.316406 15.304688 34.316406 15.425781 Z M 36.914062 29.492188 L 36.914062 41.113281 L 26.5625 41.113281 L 26.453125 34.691406 L 26.359375 28.285156 L 31.539062 23.074219 C 34.382812 20.210938 36.765625 17.875 36.820312 17.875 C 36.875 17.875 36.914062 23.101562 36.914062 29.492188 Z M 23.171875 30.828125 C 23.214844 31.761719 23.242188 34.472656 23.214844 36.851562 L 23.171875 41.179688 L 17.199219 41.222656 L 11.210938 41.25 L 11.210938 29.148438 L 23.078125 29.148438 Z M 23.171875 30.828125 "/>
<path style=" stroke:none;fill-rule:nonzero;fill:rgb(0%,0%,0%);fill-opacity:1;" d="M 85.230469 16.15625 C 85.109375 16.664062 85.242188 16.886719 85.75 17.023438 L 86.203125 17.132812 L 86.160156 20.5 C 86.148438 22.34375 86.09375 23.992188 86.0625 24.144531 C 86.023438 24.308594 85.875 24.476562 85.722656 24.515625 C 85.546875 24.558594 85.449219 24.695312 85.449219 24.929688 C 85.449219 25.121094 85.40625 25.367188 85.367188 25.492188 C 85.296875 25.683594 85.492188 25.710938 87.007812 25.710938 C 88.28125 25.710938 88.730469 25.671875 88.742188 25.535156 C 88.8125 25.023438 88.703125 24.652344 88.457031 24.488281 C 88.210938 24.324219 88.183594 24.160156 88.183594 22.480469 C 88.183594 20.898438 88.210938 20.640625 88.429688 20.445312 C 88.773438 20.128906 89.617188 20.144531 89.945312 20.472656 C 90.261719 20.789062 90.4375 22.109375 90.34375 23.390625 C 90.289062 24.078125 90.21875 24.269531 89.921875 24.515625 C 89.605469 24.792969 89.496094 25.066406 89.539062 25.535156 C 89.550781 25.671875 90 25.710938 91.328125 25.710938 L 93.105469 25.710938 L 93.105469 25.328125 C 93.105469 24.886719 92.996094 24.707031 92.613281 24.503906 C 92.339844 24.363281 92.3125 24.1875 92.21875 22.589844 C 92.078125 19.953125 91.847656 19.332031 90.820312 18.890625 C 90.179688 18.617188 89.6875 18.660156 88.9375 19.042969 C 88.566406 19.222656 88.238281 19.347656 88.183594 19.304688 C 88.140625 19.265625 88.085938 18.453125 88.0625 17.515625 L 88.019531 15.8125 L 86.664062 15.8125 C 85.339844 15.8125 85.3125 15.8125 85.230469 16.15625 Z M 85.230469 16.15625 "/>
<path style=" stroke:none;fill-rule:nonzero;fill:rgb(0%,0%,0%);fill-opacity:1;" d="M 56.957031 16.679688 C 56.804688 17.269531 56.875 17.476562 57.273438 17.613281 C 57.613281 17.738281 57.667969 17.832031 57.75 18.464844 C 57.789062 18.863281 57.832031 20.378906 57.832031 21.820312 C 57.832031 24.351562 57.820312 24.476562 57.570312 24.476562 C 57.203125 24.476562 56.875 24.832031 56.875 25.230469 C 56.875 25.519531 56.957031 25.574219 57.503906 25.65625 C 57.859375 25.710938 59.046875 25.726562 60.15625 25.683594 C 62.492188 25.601562 63.082031 25.410156 63.957031 24.40625 C 64.65625 23.609375 64.804688 23.03125 64.804688 21.09375 C 64.804688 18.644531 64.492188 17.890625 63.179688 17.089844 C 62.359375 16.597656 62.042969 16.554688 59.046875 16.429688 C 57.054688 16.363281 57.039062 16.363281 56.957031 16.679688 Z M 61.933594 18.121094 C 62.207031 18.273438 62.5625 18.644531 62.753906 18.988281 C 63.054688 19.523438 63.09375 19.746094 63.09375 21.039062 C 63.09375 22.261719 63.039062 22.5625 62.796875 23.058594 C 62.304688 23.964844 61.90625 24.199219 60.839844 24.199219 L 59.921875 24.199219 L 59.828125 23.359375 C 59.789062 22.894531 59.746094 21.464844 59.746094 20.199219 L 59.746094 17.875 L 60.609375 17.875 C 61.167969 17.875 61.617188 17.957031 61.933594 18.121094 Z M 61.933594 18.121094 "/>
<path style=" stroke:none;fill-rule:nonzero;fill:rgb(0%,0%,0%);fill-opacity:1;" d="M 44.214844 16.800781 C 44.257812 16.980469 44.296875 17.203125 44.296875 17.296875 C 44.296875 17.394531 44.488281 17.546875 44.707031 17.613281 L 45.117188 17.765625 L 45.117188 21.121094 C 45.117188 24.308594 45.101562 24.476562 44.859375 24.476562 C 44.53125 24.476562 44.324219 24.734375 44.214844 25.273438 L 44.132812 25.710938 L 47.988281 25.710938 L 47.988281 25.257812 C 47.988281 24.75 47.78125 24.476562 47.398438 24.476562 C 47.167969 24.476562 47.15625 24.308594 47.195312 21.148438 C 47.222656 18.617188 47.277344 17.820312 47.414062 17.765625 C 47.757812 17.65625 47.988281 17.296875 47.988281 16.898438 L 47.988281 16.5 L 44.132812 16.5 Z M 44.214844 16.800781 "/>
<path style=" stroke:none;fill-rule:nonzero;fill:rgb(0%,0%,0%);fill-opacity:1;" d="M 81.578125 17.285156 C 81.523438 17.324219 81.484375 17.601562 81.484375 17.890625 C 81.484375 18.644531 81.375 18.835938 80.9375 18.835938 C 80.445312 18.835938 80.351562 18.988281 80.472656 19.59375 C 80.539062 19.992188 80.636719 20.089844 80.992188 20.183594 L 81.414062 20.296875 L 81.5 22.425781 C 81.609375 24.914062 81.730469 25.285156 82.578125 25.628906 C 83.21875 25.890625 84.234375 25.917969 84.464844 25.683594 C 84.683594 25.464844 84.671875 24.679688 84.464844 24.515625 C 84.367188 24.433594 84.125 24.335938 83.917969 24.28125 C 83.453125 24.171875 83.414062 24.019531 83.359375 21.902344 L 83.328125 20.226562 L 83.875 20.183594 L 84.421875 20.144531 L 84.421875 19.523438 C 84.421875 18.90625 84.421875 18.90625 83.917969 18.863281 C 83.425781 18.824219 83.398438 18.796875 83.398438 18.316406 C 83.398438 17.285156 83.316406 17.1875 82.453125 17.1875 C 82.015625 17.1875 81.621094 17.230469 81.578125 17.285156 Z M 81.578125 17.285156 "/>
<path style=" stroke:none;fill-rule:nonzero;fill:rgb(0%,0%,0%);fill-opacity:1;" d="M 52.035156 19.113281 C 51.679688 19.347656 51.367188 19.523438 51.351562 19.496094 C 51.105469 18.933594 51.039062 18.90625 49.847656 18.863281 L 48.671875 18.824219 L 48.671875 19.386719 C 48.671875 19.839844 48.726562 19.964844 48.984375 20.0625 C 49.273438 20.171875 49.328125 20.324219 49.398438 21.050781 C 49.453125 21.519531 49.492188 22.453125 49.492188 23.113281 C 49.492188 24.324219 49.492188 24.335938 49.082031 24.542969 C 48.742188 24.722656 48.671875 24.847656 48.671875 25.230469 L 48.671875 25.710938 L 52.089844 25.710938 L 52.089844 25.257812 C 52.089844 24.941406 51.980469 24.707031 51.75 24.503906 C 51.421875 24.214844 51.40625 24.144531 51.40625 22.5625 C 51.40625 21.121094 51.433594 20.898438 51.695312 20.570312 C 51.9375 20.253906 52.0625 20.199219 52.609375 20.238281 C 53.484375 20.296875 53.59375 20.542969 53.59375 22.660156 C 53.59375 24.335938 53.59375 24.351562 53.25 24.476562 C 52.964844 24.585938 52.910156 24.695312 52.910156 25.164062 L 52.910156 25.710938 L 56.328125 25.710938 L 56.328125 25.164062 C 56.328125 24.695312 56.273438 24.585938 56 24.476562 C 55.601562 24.324219 55.5625 24.117188 55.4375 21.875 C 55.382812 21.011719 55.273438 20.101562 55.164062 19.867188 C 54.90625 19.234375 54.222656 18.796875 53.402344 18.726562 C 52.800781 18.6875 52.609375 18.742188 52.035156 19.113281 Z M 52.035156 19.113281 "/>
<path style=" stroke:none;fill-rule:nonzero;fill:rgb(0%,0%,0%);fill-opacity:1;" d="M 68.046875 18.835938 C 67.375 19.042969 66.746094 19.636719 66.351562 20.445312 C 66.035156 21.105469 65.96875 21.410156 65.980469 22.273438 C 65.980469 23.472656 66.199219 24.0625 66.921875 24.859375 C 67.59375 25.617188 68.386719 25.90625 69.492188 25.824219 C 70.476562 25.738281 71.640625 25.285156 71.640625 24.96875 C 71.640625 24.859375 71.570312 24.597656 71.476562 24.390625 C 71.328125 24.078125 71.257812 24.046875 70.820312 24.117188 C 70.5625 24.160156 69.984375 24.242188 69.5625 24.28125 C 68.8125 24.378906 68.769531 24.363281 68.359375 23.925781 C 68.101562 23.648438 67.949219 23.347656 67.976562 23.183594 C 68.015625 22.90625 68.113281 22.894531 69.984375 22.851562 L 71.953125 22.8125 L 71.859375 21.765625 C 71.804688 21.1875 71.679688 20.527344 71.585938 20.296875 C 71.078125 19.097656 69.425781 18.425781 68.046875 18.835938 Z M 69.726562 20.417969 C 69.808594 20.527344 69.90625 20.816406 69.90625 21.066406 C 69.929688 21.519531 69.917969 21.519531 69.261719 21.558594 C 67.9375 21.640625 67.578125 21.257812 68.289062 20.554688 C 68.671875 20.15625 69.453125 20.089844 69.726562 20.417969 Z M 69.726562 20.417969 "/>
<path style=" stroke:none;fill-rule:nonzero;fill:rgb(0%,0%,0%);fill-opacity:1;" d="M 76.054688 19.003906 C 75.539062 19.265625 75.46875 19.277344 75.265625 19.058594 C 75.085938 18.890625 74.773438 18.835938 73.882812 18.835938 L 72.734375 18.835938 L 72.734375 19.386719 C 72.734375 19.839844 72.789062 19.964844 73.0625 20.0625 C 73.5 20.238281 73.554688 20.679688 73.554688 24.132812 L 73.554688 27.03125 L 73.144531 27.183594 C 72.789062 27.320312 72.734375 27.402344 72.734375 27.828125 L 72.734375 28.324219 L 76.304688 28.324219 L 76.261719 27.816406 C 76.234375 27.402344 76.140625 27.253906 75.851562 27.113281 C 75.496094 26.949219 75.46875 26.867188 75.46875 26.109375 C 75.46875 25.671875 75.496094 25.300781 75.539062 25.300781 C 75.578125 25.300781 75.835938 25.421875 76.109375 25.574219 C 77.382812 26.261719 78.84375 25.574219 79.5 24.007812 C 79.898438 23.046875 79.652344 20.625 79.078125 19.71875 C 78.734375 19.207031 77.792969 18.699219 77.164062 18.699219 C 76.875 18.699219 76.371094 18.835938 76.054688 19.003906 Z M 77.191406 20.472656 C 77.78125 20.832031 77.984375 21.503906 77.890625 22.730469 C 77.835938 23.566406 77.78125 23.746094 77.464844 24.019531 C 77.039062 24.390625 76.21875 24.449219 75.796875 24.144531 C 75.5625 23.964844 75.539062 23.773438 75.539062 22.34375 C 75.539062 20.816406 75.550781 20.722656 75.867188 20.472656 C 76.261719 20.144531 76.65625 20.144531 77.191406 20.472656 Z M 77.191406 20.472656 "/>
<path style=" stroke:none;fill-rule:nonzero;fill:rgb(0%,0%,0%);fill-opacity:1;" d="M 82.6875 30.867188 C 82.632812 30.921875 82.617188 31.035156 82.648438 31.117188 C 82.671875 31.210938 82.726562 31.445312 82.769531 31.640625 C 82.824219 31.871094 82.960938 32.039062 83.164062 32.09375 C 83.453125 32.160156 83.507812 32.269531 83.578125 33.097656 C 83.632812 33.617188 83.671875 35.242188 83.671875 36.710938 L 83.671875 39.40625 L 83.261719 39.558594 C 82.890625 39.695312 82.851562 39.777344 82.851562 40.273438 L 82.851562 40.835938 L 84.273438 40.835938 C 86.039062 40.835938 86.40625 40.714844 86.40625 40.164062 C 86.40625 39.847656 86.3125 39.695312 86.023438 39.546875 L 85.625 39.339844 L 85.546875 37.042969 C 85.492188 35.777344 85.449219 33.894531 85.449219 32.835938 L 85.449219 30.9375 L 84.398438 30.9375 C 83.808594 30.9375 83.207031 30.894531 83.054688 30.855469 C 82.90625 30.8125 82.742188 30.828125 82.6875 30.867188 Z M 82.6875 30.867188 "/>
<path style=" stroke:none;fill-rule:nonzero;fill:rgb(0%,0%,0%);fill-opacity:1;" d="M 92.929688 30.894531 C 92.722656 30.953125 92.695312 31.074219 92.722656 31.597656 L 92.765625 32.242188 L 94.40625 32.242188 L 94.445312 31.640625 C 94.472656 31.253906 94.429688 30.992188 94.308594 30.921875 C 94.117188 30.800781 93.351562 30.785156 92.929688 30.894531 Z M 92.929688 30.894531 "/>
<path style=" stroke:none;fill-rule:nonzero;fill:rgb(0%,0%,0%);fill-opacity:1;" d="M 47.398438 31.488281 C 46.632812 31.695312 46.171875 31.96875 45.5 32.640625 C 44.515625 33.632812 44.367188 34.058594 44.367188 35.886719 C 44.367188 37.9375 44.609375 38.691406 45.59375 39.683594 C 46.128906 40.21875 46.5 40.453125 47.03125 40.617188 C 48.382812 41.015625 49.726562 40.851562 50.953125 40.109375 L 51.679688 39.667969 L 51.679688 37.539062 L 51.148438 37.539062 C 50.546875 37.539062 50.421875 37.648438 50.203125 38.445312 C 50 39.132812 49.507812 39.40625 48.4375 39.378906 C 47.496094 39.351562 46.882812 38.953125 46.46875 38.113281 C 46.210938 37.578125 46.15625 37.25 46.140625 36.09375 C 46.140625 34.84375 46.171875 34.664062 46.511719 34.074219 C 47.003906 33.246094 47.703125 32.808594 48.535156 32.808594 C 49.476562 32.808594 50.054688 33.207031 50.285156 34.003906 C 50.460938 34.648438 50.460938 34.648438 51.078125 34.648438 L 51.679688 34.648438 L 51.679688 33.6875 C 51.679688 32.820312 51.640625 32.699219 51.3125 32.382812 C 50.53125 31.667969 48.535156 31.210938 47.398438 31.488281 Z M 47.398438 31.488281 "/>
<path style=" stroke:none;fill-rule:nonzero;fill:rgb(0%,0%,0%);fill-opacity:1;" d="M 87.882812 33.027344 C 87.84375 33.742188 87.828125 33.757812 87.390625 33.796875 C 86.9375 33.839844 86.9375 33.851562 86.980469 34.484375 C 87.023438 35.078125 87.046875 35.132812 87.429688 35.199219 L 87.84375 35.269531 L 87.9375 37.539062 C 88.019531 39.433594 88.074219 39.847656 88.292969 40.148438 C 88.6875 40.671875 89.113281 40.835938 90.152344 40.835938 L 91.09375 40.835938 L 91 40.316406 C 90.960938 40.039062 90.917969 39.722656 90.917969 39.628906 C 90.917969 39.546875 90.78125 39.460938 90.601562 39.460938 C 90.4375 39.460938 90.152344 39.367188 89.988281 39.242188 C 89.703125 39.050781 89.6875 38.941406 89.6875 37.109375 L 89.6875 35.199219 L 90.164062 35.199219 C 90.710938 35.199219 90.90625 34.910156 90.808594 34.222656 C 90.753906 33.894531 90.6875 33.839844 90.25 33.796875 L 89.757812 33.757812 L 89.714844 33.027344 L 89.671875 32.3125 L 87.921875 32.3125 Z M 87.882812 33.027344 "/>
<path style=" stroke:none;fill-rule:nonzero;fill:rgb(0%,0%,0%);fill-opacity:1;" d="M 54.332031 34.074219 C 53.742188 34.445312 53.0625 35.308594 52.910156 35.886719 C 52.828125 36.148438 52.773438 36.835938 52.773438 37.414062 C 52.773438 39.558594 53.976562 40.835938 55.984375 40.835938 C 56.914062 40.835938 57.492188 40.589844 58.078125 39.957031 C 59.527344 38.375 59.296875 35.351562 57.65625 34.265625 C 57.203125 33.960938 56.929688 33.894531 55.945312 33.851562 C 54.945312 33.8125 54.6875 33.851562 54.332031 34.074219 Z M 56.601562 35.476562 C 57.011719 35.886719 57.148438 36.339844 57.148438 37.34375 C 57.148438 38.472656 56.902344 39.089844 56.355469 39.3125 C 55.164062 39.804688 54.25 38.402344 54.5625 36.601562 C 54.78125 35.433594 55.929688 34.800781 56.601562 35.476562 Z M 56.601562 35.476562 "/>
<path style=" stroke:none;fill-rule:nonzero;fill:rgb(0%,0%,0%);fill-opacity:1;" d="M 59.746094 34.359375 C 59.746094 34.828125 59.800781 34.9375 60.128906 35.089844 L 60.5 35.269531 L 60.539062 37.359375 L 60.578125 39.433594 L 60.15625 39.585938 C 59.773438 39.710938 59.734375 39.777344 59.773438 40.175781 L 59.8125 40.632812 L 61.5625 40.671875 L 63.300781 40.714844 L 63.300781 40.21875 C 63.300781 39.832031 63.234375 39.695312 62.960938 39.574219 C 62.507812 39.367188 62.4375 39.078125 62.507812 37.332031 C 62.546875 35.914062 62.5625 35.847656 62.929688 35.53125 C 63.398438 35.132812 63.835938 35.105469 64.3125 35.488281 C 64.667969 35.765625 64.667969 35.792969 64.667969 37.496094 C 64.667969 39.160156 64.65625 39.242188 64.328125 39.546875 C 64.078125 39.765625 63.984375 40.011719 63.984375 40.355469 L 63.984375 40.835938 L 65.335938 40.835938 C 66.078125 40.835938 66.882812 40.796875 67.117188 40.753906 C 67.484375 40.671875 67.539062 40.605469 67.539062 40.203125 C 67.539062 39.820312 67.46875 39.738281 67.074219 39.585938 L 66.609375 39.421875 L 66.554688 37.34375 C 66.484375 35.007812 66.308594 34.390625 65.585938 34.003906 C 64.953125 33.6875 63.738281 33.8125 63.039062 34.277344 C 62.523438 34.636719 62.480469 34.636719 62.480469 34.375 C 62.480469 33.960938 62.054688 33.824219 60.851562 33.824219 L 59.746094 33.824219 Z M 59.746094 34.359375 "/>
<path style=" stroke:none;fill-rule:nonzero;fill:rgb(0%,0%,0%);fill-opacity:1;" d="M 69.726562 33.976562 C 68.988281 34.277344 68.359375 35.144531 68.359375 35.820312 C 68.359375 36.574219 68.703125 37.070312 69.492188 37.441406 C 69.90625 37.648438 70.492188 37.855469 70.804688 37.9375 C 71.460938 38.074219 72.023438 38.417969 72.148438 38.734375 C 72.203125 38.871094 72.09375 39.078125 71.859375 39.285156 C 71.230469 39.820312 70.164062 39.640625 69.835938 38.953125 C 69.6875 38.636719 69.5625 38.554688 69.070312 38.527344 L 68.496094 38.484375 L 68.496094 39.242188 C 68.496094 39.890625 68.550781 40.027344 68.835938 40.273438 C 69.492188 40.78125 71.109375 40.976562 72.28125 40.6875 C 73.554688 40.355469 74.25 39.089844 73.757812 38.03125 C 73.472656 37.425781 72.953125 37.097656 71.640625 36.710938 C 70.164062 36.273438 69.742188 35.765625 70.4375 35.28125 C 71.109375 34.816406 72.203125 35.117188 72.378906 35.820312 C 72.460938 36.121094 72.53125 36.164062 73.132812 36.164062 L 73.800781 36.164062 L 73.71875 35.503906 C 73.582031 34.195312 73.226562 33.933594 71.394531 33.867188 C 70.640625 33.839844 69.917969 33.894531 69.726562 33.976562 Z M 69.726562 33.976562 "/>
<path style=" stroke:none;fill-rule:nonzero;fill:rgb(0%,0%,0%);fill-opacity:1;" d="M 74.648438 34.359375 C 74.648438 34.761719 74.730469 34.9375 74.949219 35.089844 C 75.234375 35.28125 75.265625 35.433594 75.332031 37.207031 C 75.429688 39.394531 75.617188 40 76.425781 40.535156 C 77.070312 40.976562 78.328125 40.921875 79.007812 40.4375 C 79.242188 40.261719 79.460938 40.136719 79.476562 40.164062 C 79.804688 40.769531 79.789062 40.769531 80.992188 40.808594 L 82.167969 40.851562 L 82.167969 40.398438 C 82.167969 39.847656 82.046875 39.65625 81.632812 39.488281 L 81.304688 39.378906 L 81.335938 36.601562 L 81.347656 33.824219 L 78.75 33.824219 L 78.75 34.359375 C 78.75 34.761719 78.832031 34.9375 79.050781 35.089844 C 79.324219 35.269531 79.367188 35.433594 79.40625 36.65625 C 79.476562 38.484375 79.3125 39.117188 78.679688 39.324219 C 78.109375 39.515625 77.710938 39.40625 77.4375 38.980469 C 77.273438 38.734375 77.21875 38.140625 77.203125 36.246094 L 77.179688 33.824219 L 74.648438 33.824219 Z M 74.648438 34.359375 "/>
<path style=" stroke:none;fill-rule:nonzero;fill:rgb(0%,0%,0%);fill-opacity:1;" d="M 91.738281 34.390625 C 91.738281 34.882812 91.78125 34.953125 92.21875 35.144531 L 92.695312 35.335938 L 92.695312 39.421875 L 92.257812 39.546875 C 91.875 39.65625 91.804688 39.75 91.765625 40.164062 C 91.726562 40.644531 91.738281 40.660156 92.242188 40.742188 C 92.53125 40.796875 93.335938 40.835938 94.035156 40.835938 L 95.292969 40.835938 L 95.292969 40.273438 C 95.292969 39.777344 95.25 39.695312 94.882812 39.558594 L 94.472656 39.40625 L 94.472656 33.824219 L 91.738281 33.824219 Z M 91.738281 34.390625 "/>
<path style=" stroke:none;fill-rule:nonzero;fill:rgb(0%,0%,0%);fill-opacity:1;" d="M 95.839844 34.375 C 95.839844 34.882812 95.882812 34.953125 96.320312 35.144531 L 96.796875 35.335938 L 96.796875 39.421875 L 96.359375 39.546875 C 95.960938 39.65625 95.90625 39.738281 95.867188 40.191406 L 95.828125 40.714844 L 97.578125 40.671875 L 99.328125 40.632812 L 99.367188 40.191406 C 99.40625 39.820312 99.339844 39.722656 99 39.53125 L 98.574219 39.3125 L 98.574219 37.605469 C 98.574219 36.078125 98.601562 35.859375 98.847656 35.613281 C 99.460938 34.992188 100.378906 35.160156 100.695312 35.957031 C 100.828125 36.273438 100.898438 36.917969 100.898438 37.867188 L 100.898438 39.3125 L 100.488281 39.53125 C 100.132812 39.710938 100.078125 39.820312 100.078125 40.289062 L 100.078125 40.835938 L 101.429688 40.835938 C 103.265625 40.835938 103.632812 40.753906 103.632812 40.34375 C 103.632812 40.164062 103.453125 39.820312 103.234375 39.601562 C 102.867188 39.203125 102.851562 39.132812 102.773438 37.441406 C 102.675781 35.433594 102.523438 34.816406 101.964844 34.292969 C 101.664062 33.988281 101.417969 33.894531 100.773438 33.851562 C 100.078125 33.796875 99.859375 33.851562 99.3125 34.15625 C 98.671875 34.511719 98.5625 34.5 98.398438 34.03125 C 98.367188 33.949219 97.78125 33.867188 97.097656 33.851562 L 95.839844 33.796875 Z M 95.839844 34.375 "/>
<path style=" stroke:none;fill-rule:nonzero;fill:rgb(0%,0%,0%);fill-opacity:1;" d="M 105.574219 34.195312 C 104.78125 34.71875 104.425781 35.503906 104.34375 36.890625 C 104.261719 38.375 104.492188 39.351562 105.09375 40.027344 C 105.847656 40.863281 107.078125 41.085938 108.0625 40.546875 L 108.59375 40.261719 L 108.515625 40.769531 C 108.320312 41.910156 107.664062 42.253906 106.273438 41.9375 C 105.4375 41.757812 105.3125 41.8125 105.191406 42.445312 C 105.070312 43.09375 105.65625 43.367188 107.203125 43.367188 C 108.773438 43.367188 109.566406 42.996094 110.046875 42.035156 C 110.359375 41.386719 110.375 41.277344 110.386719 37.632812 L 110.398438 33.894531 L 109.675781 33.851562 C 109.019531 33.8125 108.953125 33.839844 108.828125 34.167969 L 108.691406 34.527344 L 108.1875 34.167969 C 107.445312 33.671875 106.367188 33.6875 105.574219 34.195312 Z M 108.007812 35.433594 C 108.199219 35.558594 108.390625 35.734375 108.445312 35.804688 C 108.59375 36.023438 108.582031 38.609375 108.417969 38.914062 C 108.210938 39.296875 107.5 39.503906 107.078125 39.285156 C 105.957031 38.734375 105.75 36.546875 106.722656 35.558594 C 107.148438 35.144531 107.53125 35.105469 108.007812 35.433594 Z M 108.007812 35.433594 "/>
</g>
</svg>
